<svg width="154" height="162" viewBox="0 0 154 162" fill="none" xmlns="http://www.w3.org/2000/svg">
<path d="M56.8874 153.586C93.2674 166.126 127.097 163.716 132.447 148.186C137.797 132.666 112.647 109.906 76.2774 97.3665C39.8974 84.8265 6.06741 87.2365 0.717412 102.766C-4.63259 118.286 20.5174 141.046 56.8874 153.586ZM25.7674 111.406C28.1874 104.386 48.4174 105.006 70.9574 112.776C93.4974 120.546 109.807 132.536 107.387 139.556C104.967 146.576 84.7374 145.966 62.1974 138.186C39.6574 130.416 23.3474 118.426 25.7674 111.406Z" fill="#8B5CF6"/>
<path d="M35.3576 82.6364C48.8276 82.9864 61.8776 85.5864 74.6676 89.7064C89.6076 94.5164 103.728 100.986 116.478 110.236C118.348 111.586 118.348 111.586 119.418 109.786C129.398 93.0564 139.358 76.3164 149.358 59.6064C151.428 56.1364 153.428 52.6964 153.358 48.4664C153.268 42.8364 151.128 37.9364 148.058 33.3964C141.958 24.3664 133.588 17.8864 124.188 12.7164C111.288 5.62643 97.4877 1.28643 82.7577 0.226434C73.7877 -0.423566 64.9376 0.216434 56.4876 3.58643C50.8677 5.82643 46.0477 9.08643 43.4077 14.8464C42.1977 17.4964 42.1176 20.3564 41.7676 23.1664C40.8776 30.1764 40.0177 37.1964 39.1477 44.2064L37.0977 60.8864C36.1577 67.8864 35.2277 74.8964 34.2877 81.8964C34.1577 82.8564 34.8377 82.6264 35.3677 82.6364H35.3576Z" fill="#8B5CF6"/>
</svg>
