<svg width="602" height="162" viewBox="0 0 602 162" fill="none" xmlns="http://www.w3.org/2000/svg">
<path d="M505.325 153.586C541.705 166.126 575.535 163.716 580.885 148.186C586.235 132.666 561.085 109.906 524.715 97.3664C488.335 84.8264 454.505 87.2364 449.155 102.766C443.805 118.286 468.955 141.046 505.325 153.586ZM474.205 111.406C476.625 104.386 496.855 105.006 519.395 112.776C541.935 120.546 558.245 132.536 555.825 139.556C553.405 146.576 533.175 145.966 510.635 138.186C488.095 130.416 471.785 118.426 474.205 111.406Z" fill="#8B5CF6"/>
<path d="M483.795 82.6364C497.265 82.9864 510.315 85.5864 523.105 89.7064C538.045 94.5164 552.165 100.986 564.915 110.236C566.785 111.586 566.785 111.586 567.855 109.786C577.835 93.0564 587.795 76.3164 597.795 59.6064C599.865 56.1364 601.865 52.6964 601.795 48.4664C601.705 42.8364 599.565 37.9364 596.495 33.3964C590.395 24.3664 582.025 17.8864 572.625 12.7164C559.725 5.62643 545.925 1.28643 531.195 0.226434C522.225 -0.423566 513.375 0.216434 504.925 3.58643C499.305 5.82643 494.485 9.08643 491.845 14.8464C490.635 17.4964 490.555 20.3564 490.205 23.1664C489.315 30.1764 488.455 37.1964 487.585 44.2064L485.535 60.8864C484.595 67.8864 483.665 74.8964 482.725 81.8964C482.595 82.8564 483.275 82.6264 483.805 82.6364H483.795Z" fill="#8B5CF6"/>
<path d="M30.7557 49.3064C35.1557 49.3064 38.7957 47.8164 41.6757 44.8164C44.5557 41.8264 45.9957 38.1864 45.9957 33.8964C45.9957 30.1664 44.8357 27.1264 42.5257 24.7564C40.2057 22.3864 37.1357 21.1964 33.2957 21.1964C28.8957 21.1964 25.2557 22.6664 22.3757 25.5964C19.4957 28.5364 18.0557 32.2564 18.0557 36.7764C18.0557 40.3864 19.2457 43.3764 21.6157 45.7564C23.9857 48.1264 27.0357 49.3164 30.7557 49.3164V49.3064Z" fill="#8B5CF6"/>
<path d="M39.6453 62.5164C39.1353 61.9564 38.3753 61.6664 37.3553 61.6664H17.7153C15.9053 61.6664 14.8953 62.5164 14.6653 64.2064L0.105255 146.506C-0.124745 147.406 0.0252547 148.176 0.525255 148.796C1.03525 149.416 1.73525 149.726 2.64525 149.726H22.2853C24.0853 149.726 25.1653 148.826 25.5053 147.016L40.0653 64.7164C40.2953 63.8164 40.1453 63.0764 39.6453 62.5164Z" fill="#8B5CF6"/>
<path d="M88.385 59.2964C82.965 59.2964 77.235 59.9164 71.195 61.1564C65.155 62.3964 59.425 64.0364 54.005 66.0664C52.655 66.6364 51.805 67.6464 51.465 69.1164L37.575 146.506C37.345 147.406 37.495 148.176 37.995 148.796C38.505 149.416 39.265 149.726 40.285 149.726H59.925C61.725 149.726 62.805 148.826 63.145 147.016L74.325 83.5164C77.255 82.1664 80.875 81.4864 85.165 81.4864C92.615 81.4864 96.345 84.9864 96.345 91.9864C96.345 93.4564 96.175 95.1464 95.835 97.0664L87.365 146.516C87.255 147.416 87.445 148.186 87.955 148.806C88.465 149.426 89.165 149.736 90.075 149.736H109.545C111.345 149.736 112.425 148.836 112.765 147.026L121.235 99.6064C121.795 95.9964 122.085 92.8864 122.085 90.2964C122.085 80.7064 119.175 73.1364 113.365 67.6064C107.545 62.0764 99.225 59.3064 88.385 59.3064V59.2964Z" fill="#8B5CF6"/>
<path d="M210.715 63.5264C210.715 62.2864 209.865 61.6664 208.175 61.6664H187.175C185.595 61.6664 184.405 62.4064 183.615 63.8664L167.525 100.616C165.375 105.696 163.575 110.216 162.105 114.166C161.205 116.086 159.955 119.076 158.375 123.146H158.035C157.465 115.356 156.795 107.906 156.005 100.796L151.945 64.3864C151.835 62.5864 150.815 61.6764 148.895 61.6764H129.255C127.335 61.6764 126.375 62.5764 126.375 64.3864V64.7264L139.415 147.026C139.525 148.836 140.605 149.736 142.635 149.736H164.985C166.565 149.736 167.695 149.006 168.375 147.536L210.205 65.0664C210.545 64.5064 210.715 63.9964 210.715 63.5464V63.5264Z" fill="#8B5CF6"/>
<path d="M276.776 66.4064C270.676 61.6664 262.606 59.2964 252.556 59.2964C241.826 59.2964 232.596 62.0664 224.866 67.5964C217.136 73.1264 212.306 81.2064 210.386 91.8164L205.986 116.366C205.536 119.526 205.306 121.726 205.306 122.966C205.306 131.886 208.496 138.946 214.876 144.136C221.256 149.326 229.526 151.926 239.686 151.926C253.236 151.926 265.026 148.486 275.076 141.596C275.976 141.146 276.426 140.356 276.426 139.226C276.426 138.996 276.316 138.436 276.086 137.536L269.146 124.496C268.696 123.476 268.016 122.976 267.116 122.976C266.436 122.976 265.816 123.206 265.256 123.656C257.696 128.176 250.356 130.426 243.246 130.426C235.226 130.426 231.226 127.206 231.226 120.776C231.226 120.096 231.336 118.856 231.566 117.046L232.076 114.676H279.156C280.846 114.676 281.866 113.826 282.206 112.136L285.086 95.7064C285.646 92.3164 285.936 89.5564 285.936 87.4064C285.936 78.1464 282.886 71.1464 276.796 66.4064H276.776ZM260.686 93.4964L259.836 97.7264H235.116L235.966 93.1564C236.756 89.2064 238.426 86.1564 240.966 84.0164C243.506 81.8764 246.636 80.7964 250.366 80.7964C253.866 80.7964 256.516 81.6964 258.326 83.5064C260.126 85.3164 261.036 87.6864 261.036 90.6164C261.036 91.1864 260.926 92.1364 260.696 93.4964H260.686Z" fill="#8B5CF6"/>
<path d="M336.935 59.2964C331.515 59.2964 325.785 59.9164 319.745 61.1564C313.705 62.3964 307.975 64.0364 302.555 66.0664C301.205 66.6364 300.355 67.6464 300.015 69.1164L286.125 146.506C285.895 147.406 286.045 148.176 286.545 148.796C287.055 149.416 287.815 149.726 288.835 149.726H308.475C310.275 149.726 311.355 148.826 311.695 147.016L322.875 83.5164C325.805 82.1664 329.425 81.4864 333.715 81.4864C341.165 81.4864 344.895 84.9864 344.895 91.9864C344.895 93.4564 344.725 95.1464 344.385 97.0664L335.915 146.516C335.805 147.416 335.995 148.186 336.505 148.806C337.015 149.426 337.715 149.736 338.625 149.736H358.095C359.895 149.736 360.975 148.836 361.315 147.026L369.785 99.6064C370.345 95.9964 370.635 92.8864 370.635 90.2964C370.635 80.7064 367.725 73.1364 361.915 67.6064C356.095 62.0764 347.775 59.3064 336.935 59.3064V59.2964Z" fill="#8B5CF6"/>
<path d="M427.675 64.6264C427.165 64.0064 426.405 63.6964 425.385 63.6964L408.225 63.8964L412.855 43.5464C412.965 42.6464 412.775 41.9064 412.265 41.3464C411.755 40.7864 410.995 40.4964 409.975 40.4964H393.375C391.565 40.4964 390.495 41.3964 390.155 43.2064L377.455 115.856C376.885 118.676 376.605 121.896 376.605 125.506C376.605 134.196 379.065 140.776 383.975 145.236C388.885 149.696 395.515 151.926 403.875 151.926C406.805 151.926 409.685 151.646 412.515 151.076C414.095 150.966 415.055 150.006 415.395 148.196L418.105 132.446C418.555 130.526 417.825 129.566 415.905 129.566H410.825C405.065 129.566 402.185 126.856 402.185 121.436C402.185 120.646 402.295 119.466 402.525 117.876L408.285 85.1964H422.175C423.975 85.1964 425.055 84.2964 425.395 82.4864L428.105 66.9064C428.325 66.0064 428.185 65.2464 427.685 64.6164L427.675 64.6264Z" fill="#8B5CF6"/>
</svg>
