<?xml version="1.0" encoding="UTF-8"?><svg xmlns="http://www.w3.org/2000/svg" viewBox="0 0 139.01 146.5"><defs><style>.d{fill:#351b3e;}</style></defs><g id="a"/><g id="b"><g id="c"><g><path class="d" d="M51.57,139.22c32.97,11.37,63.63,9.18,68.48-4.89,4.85-14.07-17.94-34.69-50.91-46.06C36.16,76.9,5.5,79.09,.65,93.16c-4.85,14.07,17.94,34.69,50.91,46.06Zm-28.2-38.23c2.19-6.36,20.53-5.81,40.96,1.24,20.43,7.04,35.21,17.91,33.02,24.27-2.19,6.36-20.53,5.81-40.96-1.24-20.43-7.04-35.21-17.91-33.02-24.27Z"/><path class="d" d="M32.05,74.91c12.2,.31,24.03,2.67,35.63,6.41,13.54,4.36,26.34,10.22,37.9,18.61,1.69,1.23,1.69,1.22,2.66-.41,9.04-15.16,18.07-30.34,27.14-45.49,1.88-3.14,3.69-6.26,3.62-10.1-.09-5.1-2.02-9.54-4.8-13.66-5.52-8.18-13.11-14.06-21.63-18.74C100.88,5.1,88.38,1.16,75.02,.2c-8.13-.58-16.15-.01-23.81,3.05-5.09,2.03-9.46,4.98-11.85,10.2-1.1,2.4-1.17,5-1.49,7.54-.8,6.36-1.59,12.72-2.38,19.07l-1.86,15.12c-.85,6.35-1.7,12.7-2.55,19.04-.12,.87,.49,.66,.98,.67Z"/></g></g></g></svg>